# xmcd CD database file
#
# Track frame offsets:
#	150
#	40810
#	64592
#	78592
#	108302
#	136420
#	162662
#	176685
#
# Disc length: 3001 seconds
#
# Revision: 0
# Processed by: cddbd v1.5.2PL0 Copyright (c) Steve Scherf et al.
# Submitted via: CDex 1.70beta2
#
DISCID=690bb708
DTITLE=Gary Burton - Gary Burton Quartet In Concert
DYEAR=1968
DGENRE=Jazz
TTITLE0=Blue Comedy
TTITLE1=The Sunset Bells
TTITLE2=Lines
TTITLE3=Walter L.
TTITLE4=Wrong Is Right
TTITLE5=Dreams
TTITLE6=I Want You
TTITLE7=One, Two, 1-2-3-4
EXTD=YEAR: 1968
EXTT0=
EXTT1=
EXTT2=
EXTT3=
EXTT4=
EXTT5=
EXTT6=
EXTT7=
PLAYORDER=
